<svg width="49" height="49" viewBox="0 0 49 49" fill="none" xmlns="http://www.w3.org/2000/svg">
<rect opacity="0.1" width="49" height="49" rx="15" fill="#EC6C6B"/>
<path d="M22 30.5501L20.23 32.2701C19.7659 32.7342 19.1364 32.995 18.48 32.995C17.8236 32.995 17.1941 32.7342 16.73 32.2701C16.2659 31.806 16.0051 31.1765 16.0051 30.5201C16.0051 29.8637 16.2659 29.2342 16.73 28.7701L21.27 24.2201C21.7156 23.773 22.316 23.5144 22.947 23.4976C23.578 23.4809 24.1913 23.7073 24.66 24.1301L24.78 24.2301C24.9696 24.4157 25.2253 24.5185 25.4906 24.5157C25.756 24.5128 26.0094 24.4047 26.195 24.2151C26.3807 24.0255 26.4834 23.7699 26.4806 23.5045C26.4778 23.2391 26.3696 22.9857 26.18 22.8001C26.1236 22.7271 26.0635 22.657 26 22.5901C25.1464 21.8474 24.0424 21.4569 22.9116 21.4978C21.7808 21.5386 20.7079 22.0077 19.91 22.8101L15.31 27.3601C14.5284 28.2109 14.1056 29.3308 14.1301 30.4858C14.1545 31.6409 14.6243 32.7419 15.4413 33.5589C16.2582 34.3758 17.3592 34.8456 18.5143 34.87C19.6694 34.8945 20.7892 34.4717 21.64 33.6901L23.37 32.0001C23.5408 31.8137 23.6347 31.5696 23.6328 31.3168C23.6309 31.064 23.5333 30.8214 23.3597 30.6376C23.1861 30.4539 22.9494 30.3427 22.6971 30.3264C22.4448 30.3102 22.1958 30.3901 22 30.5501ZM32.69 16.3101C31.8488 15.4741 30.711 15.0049 29.525 15.0049C28.339 15.0049 27.2012 15.4741 26.36 16.3101L24.63 18.0001C24.4592 18.1864 24.3653 18.4306 24.3672 18.6834C24.3691 18.9361 24.4667 19.1788 24.6403 19.3626C24.8139 19.5463 25.0507 19.6575 25.303 19.6737C25.5552 19.69 25.8043 19.6101 26 19.4501L27.73 17.7301C28.1941 17.266 28.8236 17.0052 29.48 17.0052C30.1364 17.0052 30.7659 17.266 31.23 17.7301C31.6941 18.1942 31.9549 18.8237 31.9549 19.4801C31.9549 20.1365 31.6941 20.766 31.23 21.2301L26.69 25.7801C26.2444 26.2272 25.644 26.4858 25.013 26.5026C24.382 26.5193 23.7687 26.2929 23.3 25.8701L23.18 25.7701C22.9904 25.5844 22.7348 25.4817 22.4694 25.4845C22.2041 25.4874 21.9507 25.5955 21.765 25.7851C21.5794 25.9747 21.4767 26.2303 21.4795 26.4957C21.4823 26.7611 21.5904 27.0144 21.78 27.2001C21.8527 27.2744 21.9294 27.3445 22.01 27.4101C22.8647 28.1505 23.9682 28.5395 25.0983 28.4987C26.2284 28.4579 27.301 27.9903 28.1 27.1901L32.65 22.6401C33.4913 21.8042 33.9678 20.6693 33.9753 19.4833C33.9828 18.2974 33.5207 17.1566 32.69 16.3101Z" fill="#EC6C6B"/>
</svg>
