<svg width="24" height="24" viewBox="0 0 24 24" fill="none" xmlns="http://www.w3.org/2000/svg">
<path fill-rule="evenodd" clip-rule="evenodd" d="M16.3401 3.99988H7.67012C6.46068 3.99988 5.58525 4.41337 5.00821 5.01581C4.424 5.62574 4.00012 6.58342 4.00012 7.91988V16.0909C4.00012 17.4203 4.42301 18.3752 5.00729 18.9844C5.5846 19.5863 6.46059 19.9999 7.67012 19.9999H16.3401C17.5493 19.9999 18.4218 19.5866 18.9962 18.9862C19.5782 18.3779 20.0001 17.4227 20.0001 16.0909V7.91988C20.0001 6.58098 19.5772 5.62306 18.9953 5.01399C18.4211 4.41303 17.5492 3.99988 16.3401 3.99988ZM7.67012 1.99988H16.3401C19.7301 1.99988 22.0001 4.37988 22.0001 7.91988V16.0909C22.0001 19.6199 19.7301 21.9999 16.3401 21.9999H7.67012C4.28012 21.9999 2.00012 19.6199 2.00012 16.0909V7.91988C2.00012 4.37988 4.28012 1.99988 7.67012 1.99988Z" fill="white" fill-opacity="0.7"/>
</svg>
