<svg width="80" height="80" viewBox="0 0 80 80" fill="none" xmlns="http://www.w3.org/2000/svg">
<rect opacity="0.1" width="80" height="80" rx="20" fill="#EC6C6B"/>
<path d="M49.9733 40.4933C47.76 34.7333 39.5333 34.6667 42.6533 25.32C36.6933 28 31.9733 34.8933 36.64 44C30.04 41.2267 32.9333 34.28 32.9333 34.28C32.9333 34.28 29.3333 36.4933 29.3333 43.1867C29.84 50.6533 36.1466 52.9467 38.4133 53.24C41.6533 53.6533 45.16 53.0533 47.68 50.7467C50.4533 48.1733 51.4666 44.0667 49.9733 40.4933ZM37.6 47.2C39.52 46.7333 40.5066 45.3467 40.7733 44.12C41.2133 42.2133 39.4933 40.3467 40.6533 37.3333C41.0933 39.8267 45.0133 41.3867 45.0133 44.1067C45.12 47.48 41.4666 50.3733 37.6 47.2Z" fill="#EC6C6B"/>
</svg>
