<svg width="40" height="40" viewBox="0 0 40 40" fill="none" xmlns="http://www.w3.org/2000/svg">
<circle opacity="0.1" cx="20" cy="19.9999" r="16.6667" fill="white"/>
<g opacity="0.3">
<path fill-rule="evenodd" clip-rule="evenodd" d="M15.6456 11.9032C15.6456 12.9408 14.8556 13.7805 13.6201 13.7805C12.4328 13.7805 11.6427 12.9408 11.6672 11.9032C11.6427 10.8152 12.4327 10 13.6438 10C14.8555 10 15.6219 10.8152 15.6456 11.9032ZM11.7665 27.3492V15.2635H15.5226V27.3484H11.7665V27.3492Z" fill="white"/>
<path fill-rule="evenodd" clip-rule="evenodd" d="M18.533 19.1205C18.533 17.613 18.4834 16.3279 18.4337 15.2651H21.6962L21.8696 16.9208H21.9438C22.4381 16.1545 23.6736 14.9939 25.6754 14.9939C28.1463 14.9939 29.9999 16.6251 29.9999 20.1825V27.3508H26.2438V20.6532C26.2438 19.0953 25.7006 18.0333 24.3413 18.0333C23.303 18.0333 22.6857 18.7499 22.4389 19.4414C22.3395 19.689 22.2906 20.0343 22.2906 20.3812V27.3508H18.5346V19.1205H18.533Z" fill="white"/>
</g>
</svg>
