<svg width="767" height="510" viewBox="0 0 767 510" fill="none" xmlns="http://www.w3.org/2000/svg">
<g filter="url(#filter0_d)">
<ellipse cx="518" cy="252" rx="194" ry="194" transform="rotate(90 518 252)" fill="#57FFBE"/>
</g>
<path d="M518 460C573.165 460 626.071 438.086 665.078 399.078C704.086 360.071 726 307.165 726 252C726 196.835 704.086 143.929 665.078 104.922C626.071 65.9142 573.165 44 518 44" stroke="#57FFBE" stroke-width="3" stroke-linecap="round"/>
<path d="M463.755 264.84C460.161 264.84 457.058 264.21 454.445 262.95C451.878 261.69 449.848 259.963 448.355 257.77C446.908 255.53 446.068 253.01 445.835 250.21H454.585C455.005 252.217 456.031 253.897 457.665 255.25C459.298 256.557 461.328 257.21 463.755 257.21C466.368 257.21 468.491 256.253 470.125 254.34C471.805 252.427 472.645 250.047 472.645 247.2C472.645 244.26 471.805 241.927 470.125 240.2C468.491 238.473 466.415 237.61 463.895 237.61C461.795 237.61 459.975 238.123 458.435 239.15C456.895 240.177 455.798 241.46 455.145 243H446.535L450.735 215H477.895V222.84H457.455L455.215 234.18C456.241 233.06 457.641 232.15 459.415 231.45C461.188 230.703 463.171 230.33 465.365 230.33C468.865 230.33 471.781 231.123 474.115 232.71C476.448 234.25 478.221 236.303 479.435 238.87C480.648 241.39 481.255 244.143 481.255 247.13C481.255 250.537 480.508 253.57 479.015 256.23C477.568 258.89 475.515 260.99 472.855 262.53C470.241 264.07 467.208 264.84 463.755 264.84ZM509.683 264.84C505.156 264.84 501.283 263.79 498.063 261.69C494.843 259.543 492.346 256.58 490.573 252.8C488.846 248.973 487.983 244.54 487.983 239.5C487.983 234.507 488.846 230.097 490.573 226.27C492.346 222.443 494.843 219.48 498.063 217.38C501.283 215.233 505.156 214.16 509.683 214.16C514.21 214.16 518.083 215.233 521.303 217.38C524.523 219.48 526.996 222.443 528.723 226.27C530.496 230.097 531.383 234.507 531.383 239.5C531.383 244.54 530.496 248.973 528.723 252.8C526.996 256.58 524.523 259.543 521.303 261.69C518.083 263.79 514.21 264.84 509.683 264.84ZM509.683 256.79C513.37 256.79 516.38 255.25 518.713 252.17C521.046 249.09 522.213 244.867 522.213 239.5C522.213 234.133 521.046 229.91 518.713 226.83C516.38 223.75 513.37 222.21 509.683 222.21C505.95 222.21 502.916 223.75 500.583 226.83C498.296 229.91 497.153 234.133 497.153 239.5C497.153 244.867 498.296 249.09 500.583 252.17C502.916 255.25 505.95 256.79 509.683 256.79ZM549.37 239.08C547.13 239.08 545.1 238.59 543.28 237.61C541.46 236.583 540.014 235.137 538.94 233.27C537.867 231.403 537.33 229.187 537.33 226.62C537.33 224.053 537.867 221.837 538.94 219.97C540.014 218.103 541.46 216.68 543.28 215.7C545.1 214.673 547.154 214.16 549.44 214.16C551.68 214.16 553.687 214.673 555.46 215.7C557.28 216.68 558.727 218.103 559.8 219.97C560.874 221.837 561.41 224.053 561.41 226.62C561.41 229.187 560.874 231.403 559.8 233.27C558.727 235.137 557.28 236.583 555.46 237.61C553.64 238.59 551.61 239.08 549.37 239.08ZM546.71 264L574.36 215H583.11L555.46 264H546.71ZM549.37 232.85C550.724 232.85 551.89 232.337 552.87 231.31C553.85 230.237 554.34 228.673 554.34 226.62C554.34 224.567 553.85 223.003 552.87 221.93C551.937 220.857 550.77 220.32 549.37 220.32C547.97 220.32 546.78 220.857 545.8 221.93C544.867 223.003 544.4 224.567 544.4 226.62C544.4 228.673 544.867 230.237 545.8 231.31C546.78 232.337 547.97 232.85 549.37 232.85ZM580.73 264.84C578.49 264.84 576.46 264.35 574.64 263.37C572.82 262.343 571.374 260.897 570.3 259.03C569.227 257.163 568.69 254.947 568.69 252.38C568.69 249.813 569.227 247.62 570.3 245.8C571.374 243.933 572.82 242.51 574.64 241.53C576.46 240.503 578.514 239.99 580.8 239.99C583.04 239.99 585.047 240.503 586.82 241.53C588.64 242.51 590.087 243.933 591.16 245.8C592.234 247.62 592.77 249.813 592.77 252.38C592.77 254.947 592.234 257.163 591.16 259.03C590.087 260.897 588.64 262.343 586.82 263.37C585.047 264.35 583.017 264.84 580.73 264.84ZM580.73 258.61C582.13 258.61 583.297 258.097 584.23 257.07C585.21 255.997 585.7 254.433 585.7 252.38C585.7 250.327 585.21 248.763 584.23 247.69C583.297 246.617 582.13 246.08 580.73 246.08C579.33 246.08 578.14 246.617 577.16 247.69C576.227 248.763 575.76 250.327 575.76 252.38C575.76 254.433 576.227 255.997 577.16 257.07C578.14 258.097 579.33 258.61 580.73 258.61Z" fill="#2B2B2B"/>
<path d="M464.383 294.974C464.738 295.03 465.06 295.175 465.349 295.408C465.648 295.641 465.881 295.931 466.049 296.276C466.226 296.621 466.315 296.99 466.315 297.382C466.315 297.877 466.189 298.325 465.937 298.726C465.685 299.118 465.316 299.431 464.831 299.664C464.355 299.888 463.79 300 463.137 300H459.497V290.242H462.997C463.66 290.242 464.224 290.354 464.691 290.578C465.158 290.793 465.508 291.087 465.741 291.46C465.974 291.833 466.091 292.253 466.091 292.72C466.091 293.299 465.932 293.779 465.615 294.162C465.307 294.535 464.896 294.806 464.383 294.974ZM460.771 294.456H462.913C463.51 294.456 463.972 294.316 464.299 294.036C464.626 293.756 464.789 293.369 464.789 292.874C464.789 292.379 464.626 291.992 464.299 291.712C463.972 291.432 463.501 291.292 462.885 291.292H460.771V294.456ZM463.025 298.95C463.66 298.95 464.154 298.801 464.509 298.502C464.864 298.203 465.041 297.788 465.041 297.256C465.041 296.715 464.854 296.29 464.481 295.982C464.108 295.665 463.608 295.506 462.983 295.506H460.771V298.95H463.025ZM474.887 292.328V300H473.613V298.866C473.37 299.258 473.03 299.566 472.591 299.79C472.162 300.005 471.686 300.112 471.163 300.112C470.566 300.112 470.029 299.991 469.553 299.748C469.077 299.496 468.699 299.123 468.419 298.628C468.148 298.133 468.013 297.531 468.013 296.822V292.328H469.273V296.654C469.273 297.41 469.464 297.993 469.847 298.404C470.23 298.805 470.752 299.006 471.415 299.006C472.096 299.006 472.633 298.796 473.025 298.376C473.417 297.956 473.613 297.345 473.613 296.542V292.328H474.887ZM478.312 293.574C478.536 293.135 478.853 292.795 479.264 292.552C479.684 292.309 480.193 292.188 480.79 292.188V293.504H480.454C479.026 293.504 478.312 294.279 478.312 295.828V300H477.038V292.328H478.312V293.574ZM485.999 292.188C486.932 292.188 487.688 292.473 488.267 293.042C488.845 293.602 489.135 294.414 489.135 295.478V300H487.875V295.66C487.875 294.895 487.683 294.311 487.301 293.91C486.918 293.499 486.395 293.294 485.733 293.294C485.061 293.294 484.524 293.504 484.123 293.924C483.731 294.344 483.535 294.955 483.535 295.758V300H482.261V292.328H483.535V293.42C483.787 293.028 484.127 292.725 484.557 292.51C484.995 292.295 485.476 292.188 485.999 292.188ZM498.216 295.87C498.216 296.113 498.202 296.369 498.174 296.64H492.042C492.088 297.396 492.345 297.989 492.812 298.418C493.288 298.838 493.862 299.048 494.534 299.048C495.084 299.048 495.542 298.922 495.906 298.67C496.279 298.409 496.54 298.063 496.69 297.634H498.062C497.856 298.371 497.446 298.973 496.83 299.44C496.214 299.897 495.448 300.126 494.534 300.126C493.806 300.126 493.152 299.963 492.574 299.636C492.004 299.309 491.556 298.847 491.23 298.25C490.903 297.643 490.74 296.943 490.74 296.15C490.74 295.357 490.898 294.661 491.216 294.064C491.533 293.467 491.976 293.009 492.546 292.692C493.124 292.365 493.787 292.202 494.534 292.202C495.262 292.202 495.906 292.361 496.466 292.678C497.026 292.995 497.455 293.434 497.754 293.994C498.062 294.545 498.216 295.17 498.216 295.87ZM496.9 295.604C496.9 295.119 496.792 294.703 496.578 294.358C496.363 294.003 496.069 293.737 495.696 293.56C495.332 293.373 494.926 293.28 494.478 293.28C493.834 293.28 493.283 293.485 492.826 293.896C492.378 294.307 492.121 294.876 492.056 295.604H496.9ZM499.421 296.136C499.421 295.352 499.58 294.666 499.897 294.078C500.215 293.481 500.649 293.019 501.199 292.692C501.759 292.365 502.385 292.202 503.075 292.202C503.673 292.202 504.228 292.342 504.741 292.622C505.255 292.893 505.647 293.252 505.917 293.7V289.64H507.205V300H505.917V298.558C505.665 299.015 505.292 299.393 504.797 299.692C504.303 299.981 503.724 300.126 503.061 300.126C502.38 300.126 501.759 299.958 501.199 299.622C500.649 299.286 500.215 298.815 499.897 298.208C499.58 297.601 499.421 296.911 499.421 296.136ZM505.917 296.15C505.917 295.571 505.801 295.067 505.567 294.638C505.334 294.209 505.017 293.882 504.615 293.658C504.223 293.425 503.789 293.308 503.313 293.308C502.837 293.308 502.403 293.42 502.011 293.644C501.619 293.868 501.307 294.195 501.073 294.624C500.84 295.053 500.723 295.557 500.723 296.136C500.723 296.724 500.84 297.237 501.073 297.676C501.307 298.105 501.619 298.437 502.011 298.67C502.403 298.894 502.837 299.006 503.313 299.006C503.789 299.006 504.223 298.894 504.615 298.67C505.017 298.437 505.334 298.105 505.567 297.676C505.801 297.237 505.917 296.729 505.917 296.15ZM512.615 296.136C512.615 295.352 512.773 294.666 513.091 294.078C513.408 293.481 513.842 293.019 514.393 292.692C514.953 292.365 515.573 292.202 516.255 292.202C516.927 292.202 517.51 292.347 518.005 292.636C518.499 292.925 518.868 293.289 519.111 293.728V292.328H520.399V300H519.111V298.572C518.859 299.02 518.481 299.393 517.977 299.692C517.482 299.981 516.903 300.126 516.241 300.126C515.559 300.126 514.943 299.958 514.393 299.622C513.842 299.286 513.408 298.815 513.091 298.208C512.773 297.601 512.615 296.911 512.615 296.136ZM519.111 296.15C519.111 295.571 518.994 295.067 518.761 294.638C518.527 294.209 518.21 293.882 517.809 293.658C517.417 293.425 516.983 293.308 516.507 293.308C516.031 293.308 515.597 293.42 515.205 293.644C514.813 293.868 514.5 294.195 514.267 294.624C514.033 295.053 513.917 295.557 513.917 296.136C513.917 296.724 514.033 297.237 514.267 297.676C514.5 298.105 514.813 298.437 515.205 298.67C515.597 298.894 516.031 299.006 516.507 299.006C516.983 299.006 517.417 298.894 517.809 298.67C518.21 298.437 518.527 298.105 518.761 297.676C518.994 297.237 519.111 296.729 519.111 296.15ZM524.106 293.378V297.9C524.106 298.273 524.185 298.539 524.344 298.698C524.502 298.847 524.778 298.922 525.17 298.922H526.108V300H524.96C524.25 300 523.718 299.837 523.364 299.51C523.009 299.183 522.832 298.647 522.832 297.9V293.378H521.838V292.328H522.832V290.396H524.106V292.328H526.108V293.378H524.106ZM532.658 289.64V300H531.384V289.64H532.658ZM534.353 296.136C534.353 295.352 534.512 294.666 534.829 294.078C535.146 293.481 535.58 293.019 536.131 292.692C536.691 292.365 537.312 292.202 537.993 292.202C538.665 292.202 539.248 292.347 539.743 292.636C540.238 292.925 540.606 293.289 540.849 293.728V292.328H542.137V300H540.849V298.572C540.597 299.02 540.219 299.393 539.715 299.692C539.22 299.981 538.642 300.126 537.979 300.126C537.298 300.126 536.682 299.958 536.131 299.622C535.58 299.286 535.146 298.815 534.829 298.208C534.512 297.601 534.353 296.911 534.353 296.136ZM540.849 296.15C540.849 295.571 540.732 295.067 540.499 294.638C540.266 294.209 539.948 293.882 539.547 293.658C539.155 293.425 538.721 293.308 538.245 293.308C537.769 293.308 537.335 293.42 536.943 293.644C536.551 293.868 536.238 294.195 536.005 294.624C535.772 295.053 535.655 295.557 535.655 296.136C535.655 296.724 535.772 297.237 536.005 297.676C536.238 298.105 536.551 298.437 536.943 298.67C537.335 298.894 537.769 299.006 538.245 299.006C538.721 299.006 539.155 298.894 539.547 298.67C539.948 298.437 540.266 298.105 540.499 297.676C540.732 297.237 540.849 296.729 540.849 296.15ZM551.094 292.328V300H549.82V298.866C549.577 299.258 549.237 299.566 548.798 299.79C548.369 300.005 547.893 300.112 547.37 300.112C546.773 300.112 546.236 299.991 545.76 299.748C545.284 299.496 544.906 299.123 544.626 298.628C544.355 298.133 544.22 297.531 544.22 296.822V292.328H545.48V296.654C545.48 297.41 545.671 297.993 546.054 298.404C546.437 298.805 546.959 299.006 547.622 299.006C548.303 299.006 548.84 298.796 549.232 298.376C549.624 297.956 549.82 297.345 549.82 296.542V292.328H551.094ZM556.983 292.188C557.916 292.188 558.672 292.473 559.251 293.042C559.83 293.602 560.119 294.414 560.119 295.478V300H558.859V295.66C558.859 294.895 558.668 294.311 558.285 293.91C557.902 293.499 557.38 293.294 556.717 293.294C556.045 293.294 555.508 293.504 555.107 293.924C554.715 294.344 554.519 294.955 554.519 295.758V300H553.245V292.328H554.519V293.42C554.771 293.028 555.112 292.725 555.541 292.51C555.98 292.295 556.46 292.188 556.983 292.188ZM561.724 296.15C561.724 295.357 561.883 294.666 562.2 294.078C562.517 293.481 562.956 293.019 563.516 292.692C564.085 292.365 564.734 292.202 565.462 292.202C566.405 292.202 567.179 292.431 567.786 292.888C568.402 293.345 568.808 293.98 569.004 294.792H567.632C567.501 294.325 567.245 293.957 566.862 293.686C566.489 293.415 566.022 293.28 565.462 293.28C564.734 293.28 564.146 293.532 563.698 294.036C563.25 294.531 563.026 295.235 563.026 296.15C563.026 297.074 563.25 297.788 563.698 298.292C564.146 298.796 564.734 299.048 565.462 299.048C566.022 299.048 566.489 298.917 566.862 298.656C567.235 298.395 567.492 298.021 567.632 297.536H569.004C568.799 298.32 568.388 298.95 567.772 299.426C567.156 299.893 566.386 300.126 565.462 300.126C564.734 300.126 564.085 299.963 563.516 299.636C562.956 299.309 562.517 298.847 562.2 298.25C561.883 297.653 561.724 296.953 561.724 296.15ZM574.512 292.188C575.091 292.188 575.613 292.314 576.08 292.566C576.547 292.809 576.911 293.177 577.172 293.672C577.443 294.167 577.578 294.769 577.578 295.478V300H576.318V295.66C576.318 294.895 576.127 294.311 575.744 293.91C575.361 293.499 574.839 293.294 574.176 293.294C573.504 293.294 572.967 293.504 572.566 293.924C572.174 294.344 571.978 294.955 571.978 295.758V300H570.704V289.64H571.978V293.42C572.23 293.028 572.575 292.725 573.014 292.51C573.462 292.295 573.961 292.188 574.512 292.188Z" fill="#2B2B2B"/>
<g filter="url(#filter1_d)">
<circle cx="239.5" cy="100.5" r="76.5" transform="rotate(90 239.5 100.5)" fill="#EC6C6B"/>
</g>
<path d="M239.5 185C248.367 185 257.179 183.604 265.612 180.864" stroke="#EC6C6B" stroke-width="3" stroke-linecap="round"/>
<path d="M218.926 96.288C217.694 96.288 216.63 96.072 215.734 95.64C214.854 95.208 214.158 94.616 213.646 93.864C213.15 93.096 212.862 92.232 212.782 91.272H215.782C215.926 91.96 216.278 92.536 216.838 93C217.398 93.448 218.094 93.672 218.926 93.672C219.822 93.672 220.55 93.344 221.11 92.688C221.686 92.032 221.974 91.216 221.974 90.24C221.974 89.232 221.686 88.432 221.11 87.84C220.55 87.248 219.838 86.952 218.974 86.952C218.254 86.952 217.63 87.128 217.102 87.48C216.574 87.832 216.198 88.272 215.974 88.8H213.022L214.462 79.2H223.774V81.888H216.766L215.998 85.776C216.35 85.392 216.83 85.08 217.438 84.84C218.046 84.584 218.726 84.456 219.478 84.456C220.678 84.456 221.678 84.728 222.478 85.272C223.278 85.8 223.886 86.504 224.302 87.384C224.718 88.248 224.926 89.192 224.926 90.216C224.926 91.384 224.67 92.424 224.158 93.336C223.662 94.248 222.958 94.968 222.046 95.496C221.15 96.024 220.11 96.288 218.926 96.288ZM229.032 96.168C228.472 96.168 228.008 95.992 227.64 95.64C227.288 95.288 227.112 94.864 227.112 94.368C227.112 93.856 227.288 93.424 227.64 93.072C228.008 92.72 228.472 92.544 229.032 92.544C229.592 92.544 230.048 92.72 230.4 93.072C230.768 93.424 230.952 93.856 230.952 94.368C230.952 94.864 230.768 95.288 230.4 95.64C230.048 95.992 229.592 96.168 229.032 96.168ZM239.574 96.288C238.342 96.288 237.278 96.072 236.382 95.64C235.502 95.208 234.806 94.616 234.294 93.864C233.798 93.096 233.51 92.232 233.43 91.272H236.43C236.574 91.96 236.926 92.536 237.486 93C238.046 93.448 238.742 93.672 239.574 93.672C240.47 93.672 241.198 93.344 241.758 92.688C242.334 92.032 242.622 91.216 242.622 90.24C242.622 89.232 242.334 88.432 241.758 87.84C241.198 87.248 240.486 86.952 239.622 86.952C238.902 86.952 238.278 87.128 237.75 87.48C237.222 87.832 236.846 88.272 236.622 88.8H233.67L235.11 79.2H244.422V81.888H237.414L236.646 85.776C236.998 85.392 237.478 85.08 238.086 84.84C238.694 84.584 239.374 84.456 240.126 84.456C241.326 84.456 242.326 84.728 243.126 85.272C243.926 85.8 244.534 86.504 244.95 87.384C245.366 88.248 245.574 89.192 245.574 90.216C245.574 91.384 245.318 92.424 244.806 93.336C244.31 94.248 243.606 94.968 242.694 95.496C241.798 96.024 240.758 96.288 239.574 96.288ZM251.889 87.456C251.121 87.456 250.425 87.288 249.801 86.952C249.177 86.6 248.681 86.104 248.313 85.464C247.945 84.824 247.761 84.064 247.761 83.184C247.761 82.304 247.945 81.544 248.313 80.904C248.681 80.264 249.177 79.776 249.801 79.44C250.425 79.088 251.129 78.912 251.913 78.912C252.681 78.912 253.369 79.088 253.977 79.44C254.601 79.776 255.097 80.264 255.465 80.904C255.833 81.544 256.017 82.304 256.017 83.184C256.017 84.064 255.833 84.824 255.465 85.464C255.097 86.104 254.601 86.6 253.977 86.952C253.353 87.288 252.657 87.456 251.889 87.456ZM250.977 96L260.457 79.2H263.457L253.977 96H250.977ZM251.889 85.32C252.353 85.32 252.753 85.144 253.089 84.792C253.425 84.424 253.593 83.888 253.593 83.184C253.593 82.48 253.425 81.944 253.089 81.576C252.769 81.208 252.369 81.024 251.889 81.024C251.409 81.024 251.001 81.208 250.665 81.576C250.345 81.944 250.185 82.48 250.185 83.184C250.185 83.888 250.345 84.424 250.665 84.792C251.001 85.144 251.409 85.32 251.889 85.32ZM262.641 96.288C261.873 96.288 261.177 96.12 260.553 95.784C259.929 95.432 259.433 94.936 259.065 94.296C258.697 93.656 258.513 92.896 258.513 92.016C258.513 91.136 258.697 90.384 259.065 89.76C259.433 89.12 259.929 88.632 260.553 88.296C261.177 87.944 261.881 87.768 262.665 87.768C263.433 87.768 264.121 87.944 264.729 88.296C265.353 88.632 265.849 89.12 266.217 89.76C266.585 90.384 266.769 91.136 266.769 92.016C266.769 92.896 266.585 93.656 266.217 94.296C265.849 94.936 265.353 95.432 264.729 95.784C264.121 96.12 263.425 96.288 262.641 96.288ZM262.641 94.152C263.121 94.152 263.521 93.976 263.841 93.624C264.177 93.256 264.345 92.72 264.345 92.016C264.345 91.312 264.177 90.776 263.841 90.408C263.521 90.04 263.121 89.856 262.641 89.856C262.161 89.856 261.753 90.04 261.417 90.408C261.097 90.776 260.937 91.312 260.937 92.016C260.937 92.72 261.097 93.256 261.417 93.624C261.753 93.976 262.161 94.152 262.641 94.152Z" fill="white"/>
<path d="M188.546 108.242C189.61 108.242 190.529 108.443 191.304 108.844C192.088 109.236 192.685 109.801 193.096 110.538C193.516 111.275 193.726 112.143 193.726 113.142C193.726 114.141 193.516 115.009 193.096 115.746C192.685 116.474 192.088 117.034 191.304 117.426C190.529 117.809 189.61 118 188.546 118H185.508V108.242H188.546ZM188.546 116.95C189.806 116.95 190.767 116.619 191.43 115.956C192.092 115.284 192.424 114.346 192.424 113.142C192.424 111.929 192.088 110.981 191.416 110.3C190.753 109.619 189.796 109.278 188.546 109.278H186.782V116.95H188.546ZM202.406 113.87C202.406 114.113 202.392 114.369 202.364 114.64H196.232C196.279 115.396 196.535 115.989 197.002 116.418C197.478 116.838 198.052 117.048 198.724 117.048C199.275 117.048 199.732 116.922 200.096 116.67C200.469 116.409 200.731 116.063 200.88 115.634H202.252C202.047 116.371 201.636 116.973 201.02 117.44C200.404 117.897 199.639 118.126 198.724 118.126C197.996 118.126 197.343 117.963 196.764 117.636C196.195 117.309 195.747 116.847 195.42 116.25C195.093 115.643 194.93 114.943 194.93 114.15C194.93 113.357 195.089 112.661 195.406 112.064C195.723 111.467 196.167 111.009 196.736 110.692C197.315 110.365 197.977 110.202 198.724 110.202C199.452 110.202 200.096 110.361 200.656 110.678C201.216 110.995 201.645 111.434 201.944 111.994C202.252 112.545 202.406 113.17 202.406 113.87ZM201.09 113.604C201.09 113.119 200.983 112.703 200.768 112.358C200.553 112.003 200.259 111.737 199.886 111.56C199.522 111.373 199.116 111.28 198.668 111.28C198.024 111.28 197.473 111.485 197.016 111.896C196.568 112.307 196.311 112.876 196.246 113.604H201.09ZM206.944 116.824L209.324 110.328H210.682L207.672 118H206.188L203.178 110.328H204.55L206.944 116.824ZM220.428 104.812L216.592 120.38H215.332L219.154 104.812H220.428ZM235.956 108.312V118H234.682V110.776L231.462 118H230.566L227.332 110.762V118H226.058V108.312H227.43L231.014 116.32L234.598 108.312H235.956ZM237.641 114.136C237.641 113.352 237.8 112.666 238.117 112.078C238.434 111.481 238.868 111.019 239.419 110.692C239.979 110.365 240.6 110.202 241.281 110.202C241.953 110.202 242.536 110.347 243.031 110.636C243.526 110.925 243.894 111.289 244.137 111.728V110.328H245.425V118H244.137V116.572C243.885 117.02 243.507 117.393 243.003 117.692C242.508 117.981 241.93 118.126 241.267 118.126C240.586 118.126 239.97 117.958 239.419 117.622C238.868 117.286 238.434 116.815 238.117 116.208C237.8 115.601 237.641 114.911 237.641 114.136ZM244.137 114.15C244.137 113.571 244.02 113.067 243.787 112.638C243.554 112.209 243.236 111.882 242.835 111.658C242.443 111.425 242.009 111.308 241.533 111.308C241.057 111.308 240.623 111.42 240.231 111.644C239.839 111.868 239.526 112.195 239.293 112.624C239.06 113.053 238.943 113.557 238.943 114.136C238.943 114.724 239.06 115.237 239.293 115.676C239.526 116.105 239.839 116.437 240.231 116.67C240.623 116.894 241.057 117.006 241.533 117.006C242.009 117.006 242.443 116.894 242.835 116.67C243.236 116.437 243.554 116.105 243.787 115.676C244.02 115.237 244.137 114.729 244.137 114.15ZM248.852 111.574C249.076 111.135 249.393 110.795 249.804 110.552C250.224 110.309 250.733 110.188 251.33 110.188V111.504H250.994C249.566 111.504 248.852 112.279 248.852 113.828V118H247.578V110.328H248.852V111.574ZM257.085 118L254.075 114.612V118H252.801V107.64H254.075V113.73L257.029 110.328H258.807L255.195 114.15L258.821 118H257.085ZM267.006 113.87C267.006 114.113 266.992 114.369 266.964 114.64H260.832C260.878 115.396 261.135 115.989 261.602 116.418C262.078 116.838 262.652 117.048 263.324 117.048C263.874 117.048 264.332 116.922 264.696 116.67C265.069 116.409 265.33 116.063 265.48 115.634H266.852C266.646 116.371 266.236 116.973 265.62 117.44C265.004 117.897 264.238 118.126 263.324 118.126C262.596 118.126 261.942 117.963 261.364 117.636C260.794 117.309 260.346 116.847 260.02 116.25C259.693 115.643 259.53 114.943 259.53 114.15C259.53 113.357 259.688 112.661 260.006 112.064C260.323 111.467 260.766 111.009 261.336 110.692C261.914 110.365 262.577 110.202 263.324 110.202C264.052 110.202 264.696 110.361 265.256 110.678C265.816 110.995 266.245 111.434 266.544 111.994C266.852 112.545 267.006 113.17 267.006 113.87ZM265.69 113.604C265.69 113.119 265.582 112.703 265.368 112.358C265.153 112.003 264.859 111.737 264.486 111.56C264.122 111.373 263.716 111.28 263.268 111.28C262.624 111.28 262.073 111.485 261.616 111.896C261.168 112.307 260.911 112.876 260.846 113.604H265.69ZM270.241 111.378V115.9C270.241 116.273 270.321 116.539 270.479 116.698C270.638 116.847 270.913 116.922 271.305 116.922H272.243V118H271.095C270.386 118 269.854 117.837 269.499 117.51C269.145 117.183 268.967 116.647 268.967 115.9V111.378H267.973V110.328H268.967V108.396H270.241V110.328H272.243V111.378H270.241ZM274.445 109.082C274.202 109.082 273.997 108.998 273.829 108.83C273.661 108.662 273.577 108.457 273.577 108.214C273.577 107.971 273.661 107.766 273.829 107.598C273.997 107.43 274.202 107.346 274.445 107.346C274.678 107.346 274.874 107.43 275.033 107.598C275.201 107.766 275.285 107.971 275.285 108.214C275.285 108.457 275.201 108.662 275.033 108.83C274.874 108.998 274.678 109.082 274.445 109.082ZM275.061 110.328V118H273.787V110.328H275.061ZM280.97 110.188C281.904 110.188 282.66 110.473 283.238 111.042C283.817 111.602 284.106 112.414 284.106 113.478V118H282.846V113.66C282.846 112.895 282.655 112.311 282.272 111.91C281.89 111.499 281.367 111.294 280.704 111.294C280.032 111.294 279.496 111.504 279.094 111.924C278.702 112.344 278.506 112.955 278.506 113.758V118H277.232V110.328H278.506V111.42C278.758 111.028 279.099 110.725 279.528 110.51C279.967 110.295 280.448 110.188 280.97 110.188ZM289.351 110.202C290.014 110.202 290.593 110.347 291.087 110.636C291.591 110.925 291.965 111.289 292.207 111.728V110.328H293.495V118.168C293.495 118.868 293.346 119.489 293.047 120.03C292.749 120.581 292.319 121.01 291.759 121.318C291.209 121.626 290.565 121.78 289.827 121.78C288.819 121.78 287.979 121.542 287.307 121.066C286.635 120.59 286.239 119.941 286.117 119.12H287.377C287.517 119.587 287.807 119.96 288.245 120.24C288.684 120.529 289.211 120.674 289.827 120.674C290.527 120.674 291.097 120.455 291.535 120.016C291.983 119.577 292.207 118.961 292.207 118.168V116.558C291.955 117.006 291.582 117.379 291.087 117.678C290.593 117.977 290.014 118.126 289.351 118.126C288.67 118.126 288.049 117.958 287.489 117.622C286.939 117.286 286.505 116.815 286.187 116.208C285.87 115.601 285.711 114.911 285.711 114.136C285.711 113.352 285.87 112.666 286.187 112.078C286.505 111.481 286.939 111.019 287.489 110.692C288.049 110.365 288.67 110.202 289.351 110.202ZM292.207 114.15C292.207 113.571 292.091 113.067 291.857 112.638C291.624 112.209 291.307 111.882 290.905 111.658C290.513 111.425 290.079 111.308 289.603 111.308C289.127 111.308 288.693 111.42 288.301 111.644C287.909 111.868 287.597 112.195 287.363 112.624C287.13 113.053 287.013 113.557 287.013 114.136C287.013 114.724 287.13 115.237 287.363 115.676C287.597 116.105 287.909 116.437 288.301 116.67C288.693 116.894 289.127 117.006 289.603 117.006C290.079 117.006 290.513 116.894 290.905 116.67C291.307 116.437 291.624 116.105 291.857 115.676C292.091 115.237 292.207 114.729 292.207 114.15Z" fill="white"/>
<g filter="url(#filter2_d)">
<ellipse cx="170" cy="339.019" rx="124" ry="124" transform="rotate(90 170 339.019)" fill="#7D41FD"/>
</g>
<path d="M170 474.019C138.221 474.019 107.46 462.808 83.1337 442.359C58.8071 421.911 42.4743 393.535 37.0105 362.229C31.5467 330.923 37.3023 298.693 53.2639 271.213C69.2256 243.733 94.37 222.765 124.271 212" stroke="#7D41FD" stroke-width="3" stroke-linecap="round"/>
<path d="M125.747 340V334.8H111.947V330.72L125.067 312H130.867V330.36H134.547V334.8H130.867V340H125.747ZM117.427 330.36H126.067V317.64L117.427 330.36ZM151.372 340V334.8H137.572V330.72L150.692 312H156.492V330.36H160.172V334.8H156.492V340H151.372ZM143.052 330.36H151.692V317.64L143.052 330.36ZM166.277 340.28C165.343 340.28 164.57 339.987 163.957 339.4C163.37 338.813 163.077 338.107 163.077 337.28C163.077 336.427 163.37 335.707 163.957 335.12C164.57 334.533 165.343 334.24 166.277 334.24C167.21 334.24 167.97 334.533 168.557 335.12C169.17 335.707 169.477 336.427 169.477 337.28C169.477 338.107 169.17 338.813 168.557 339.4C167.97 339.987 167.21 340.28 166.277 340.28ZM183.846 340.48C181.793 340.48 180.019 340.12 178.526 339.4C177.059 338.68 175.899 337.693 175.046 336.44C174.219 335.16 173.739 333.72 173.606 332.12H178.606C178.846 333.267 179.433 334.227 180.366 335C181.299 335.747 182.459 336.12 183.846 336.12C185.339 336.12 186.553 335.573 187.486 334.48C188.446 333.387 188.926 332.027 188.926 330.4C188.926 328.72 188.446 327.387 187.486 326.4C186.553 325.413 185.366 324.92 183.926 324.92C182.726 324.92 181.686 325.213 180.806 325.8C179.926 326.387 179.299 327.12 178.926 328H174.006L176.406 312H191.926V316.48H180.246L178.966 322.96C179.553 322.32 180.353 321.8 181.366 321.4C182.379 320.973 183.513 320.76 184.766 320.76C186.766 320.76 188.433 321.213 189.766 322.12C191.099 323 192.113 324.173 192.806 325.64C193.499 327.08 193.846 328.653 193.846 330.36C193.846 332.307 193.419 334.04 192.566 335.56C191.739 337.08 190.566 338.28 189.046 339.16C187.553 340.04 185.819 340.48 183.846 340.48ZM204.371 325.76C203.091 325.76 201.931 325.48 200.891 324.92C199.851 324.333 199.024 323.507 198.411 322.44C197.797 321.373 197.491 320.107 197.491 318.64C197.491 317.173 197.797 315.907 198.411 314.84C199.024 313.773 199.851 312.96 200.891 312.4C201.931 311.813 203.104 311.52 204.411 311.52C205.691 311.52 206.837 311.813 207.851 312.4C208.891 312.96 209.717 313.773 210.331 314.84C210.944 315.907 211.251 317.173 211.251 318.64C211.251 320.107 210.944 321.373 210.331 322.44C209.717 323.507 208.891 324.333 207.851 324.92C206.811 325.48 205.651 325.76 204.371 325.76ZM202.851 340L218.651 312H223.651L207.851 340H202.851ZM204.371 322.2C205.144 322.2 205.811 321.907 206.371 321.32C206.931 320.707 207.211 319.813 207.211 318.64C207.211 317.467 206.931 316.573 206.371 315.96C205.837 315.347 205.171 315.04 204.371 315.04C203.571 315.04 202.891 315.347 202.331 315.96C201.797 316.573 201.531 317.467 201.531 318.64C201.531 319.813 201.797 320.707 202.331 321.32C202.891 321.907 203.571 322.2 204.371 322.2ZM222.291 340.48C221.011 340.48 219.851 340.2 218.811 339.64C217.771 339.053 216.944 338.227 216.331 337.16C215.717 336.093 215.411 334.827 215.411 333.36C215.411 331.893 215.717 330.64 216.331 329.6C216.944 328.533 217.771 327.72 218.811 327.16C219.851 326.573 221.024 326.28 222.331 326.28C223.611 326.28 224.757 326.573 225.771 327.16C226.811 327.72 227.637 328.533 228.251 329.6C228.864 330.64 229.171 331.893 229.171 333.36C229.171 334.827 228.864 336.093 228.251 337.16C227.637 338.227 226.811 339.053 225.771 339.64C224.757 340.2 223.597 340.48 222.291 340.48ZM222.291 336.92C223.091 336.92 223.757 336.627 224.291 336.04C224.851 335.427 225.131 334.533 225.131 333.36C225.131 332.187 224.851 331.293 224.291 330.68C223.757 330.067 223.091 329.76 222.291 329.76C221.491 329.76 220.811 330.067 220.251 330.68C219.717 331.293 219.451 332.187 219.451 333.36C219.451 334.533 219.717 335.427 220.251 336.04C220.811 336.627 221.491 336.92 222.291 336.92Z" fill="white"/>
<path d="M123.465 369L121.141 365.01H119.601V369H118.327V359.242H121.477C122.214 359.242 122.835 359.368 123.339 359.62C123.852 359.872 124.235 360.213 124.487 360.642C124.739 361.071 124.865 361.561 124.865 362.112C124.865 362.784 124.669 363.377 124.277 363.89C123.894 364.403 123.316 364.744 122.541 364.912L124.991 369H123.465ZM119.601 363.988H121.477C122.168 363.988 122.686 363.82 123.031 363.484C123.376 363.139 123.549 362.681 123.549 362.112C123.549 361.533 123.376 361.085 123.031 360.768C122.695 360.451 122.177 360.292 121.477 360.292H119.601V363.988ZM133.649 361.328V369H132.375V367.866C132.132 368.258 131.791 368.566 131.353 368.79C130.923 369.005 130.447 369.112 129.925 369.112C129.327 369.112 128.791 368.991 128.315 368.748C127.839 368.496 127.461 368.123 127.181 367.628C126.91 367.133 126.775 366.531 126.775 365.822V361.328H128.035V365.654C128.035 366.41 128.226 366.993 128.609 367.404C128.991 367.805 129.514 368.006 130.177 368.006C130.858 368.006 131.395 367.796 131.787 367.376C132.179 366.956 132.375 366.345 132.375 365.542V361.328H133.649ZM139.538 361.188C140.471 361.188 141.227 361.473 141.806 362.042C142.384 362.602 142.674 363.414 142.674 364.478V369H141.414V364.66C141.414 363.895 141.222 363.311 140.84 362.91C140.457 362.499 139.934 362.294 139.272 362.294C138.6 362.294 138.063 362.504 137.662 362.924C137.27 363.344 137.074 363.955 137.074 364.758V369H135.8V361.328H137.074V362.42C137.326 362.028 137.666 361.725 138.096 361.51C138.534 361.295 139.015 361.188 139.538 361.188ZM148.493 361.188C149.426 361.188 150.182 361.473 150.761 362.042C151.339 362.602 151.629 363.414 151.629 364.478V369H150.369V364.66C150.369 363.895 150.177 363.311 149.795 362.91C149.412 362.499 148.889 362.294 148.227 362.294C147.555 362.294 147.018 362.504 146.617 362.924C146.225 363.344 146.029 363.955 146.029 364.758V369H144.755V361.328H146.029V362.42C146.281 362.028 146.621 361.725 147.051 361.51C147.489 361.295 147.97 361.188 148.493 361.188ZM154.368 360.082C154.125 360.082 153.92 359.998 153.752 359.83C153.584 359.662 153.5 359.457 153.5 359.214C153.5 358.971 153.584 358.766 153.752 358.598C153.92 358.43 154.125 358.346 154.368 358.346C154.601 358.346 154.797 358.43 154.956 358.598C155.124 358.766 155.208 358.971 155.208 359.214C155.208 359.457 155.124 359.662 154.956 359.83C154.797 359.998 154.601 360.082 154.368 360.082ZM154.984 361.328V369H153.71V361.328H154.984ZM160.893 361.188C161.826 361.188 162.582 361.473 163.161 362.042C163.74 362.602 164.029 363.414 164.029 364.478V369H162.769V364.66C162.769 363.895 162.578 363.311 162.195 362.91C161.812 362.499 161.29 362.294 160.627 362.294C159.955 362.294 159.418 362.504 159.017 362.924C158.625 363.344 158.429 363.955 158.429 364.758V369H157.155V361.328H158.429V362.42C158.681 362.028 159.022 361.725 159.451 361.51C159.89 361.295 160.37 361.188 160.893 361.188ZM169.274 361.202C169.937 361.202 170.516 361.347 171.01 361.636C171.514 361.925 171.888 362.289 172.13 362.728V361.328H173.418V369.168C173.418 369.868 173.269 370.489 172.97 371.03C172.672 371.581 172.242 372.01 171.682 372.318C171.132 372.626 170.488 372.78 169.75 372.78C168.742 372.78 167.902 372.542 167.23 372.066C166.558 371.59 166.162 370.941 166.04 370.12H167.3C167.44 370.587 167.73 370.96 168.168 371.24C168.607 371.529 169.134 371.674 169.75 371.674C170.45 371.674 171.02 371.455 171.458 371.016C171.906 370.577 172.13 369.961 172.13 369.168V367.558C171.878 368.006 171.505 368.379 171.01 368.678C170.516 368.977 169.937 369.126 169.274 369.126C168.593 369.126 167.972 368.958 167.412 368.622C166.862 368.286 166.428 367.815 166.11 367.208C165.793 366.601 165.634 365.911 165.634 365.136C165.634 364.352 165.793 363.666 166.11 363.078C166.428 362.481 166.862 362.019 167.412 361.692C167.972 361.365 168.593 361.202 169.274 361.202ZM172.13 365.15C172.13 364.571 172.014 364.067 171.78 363.638C171.547 363.209 171.23 362.882 170.828 362.658C170.436 362.425 170.002 362.308 169.526 362.308C169.05 362.308 168.616 362.42 168.224 362.644C167.832 362.868 167.52 363.195 167.286 363.624C167.053 364.053 166.936 364.557 166.936 365.136C166.936 365.724 167.053 366.237 167.286 366.676C167.52 367.105 167.832 367.437 168.224 367.67C168.616 367.894 169.05 368.006 169.526 368.006C170.002 368.006 170.436 367.894 170.828 367.67C171.23 367.437 171.547 367.105 171.78 366.676C172.014 366.237 172.13 365.729 172.13 365.15ZM182.02 369.126C181.432 369.126 180.904 369.028 180.438 368.832C179.971 368.627 179.602 368.347 179.332 367.992C179.061 367.628 178.912 367.213 178.884 366.746H180.2C180.237 367.129 180.414 367.441 180.732 367.684C181.058 367.927 181.483 368.048 182.006 368.048C182.491 368.048 182.874 367.941 183.154 367.726C183.434 367.511 183.574 367.241 183.574 366.914C183.574 366.578 183.424 366.331 183.126 366.172C182.827 366.004 182.365 365.841 181.74 365.682C181.17 365.533 180.704 365.383 180.34 365.234C179.985 365.075 179.677 364.847 179.416 364.548C179.164 364.24 179.038 363.839 179.038 363.344C179.038 362.952 179.154 362.593 179.388 362.266C179.621 361.939 179.952 361.683 180.382 361.496C180.811 361.3 181.301 361.202 181.852 361.202C182.701 361.202 183.387 361.417 183.91 361.846C184.432 362.275 184.712 362.863 184.75 363.61H183.476C183.448 363.209 183.284 362.887 182.986 362.644C182.696 362.401 182.304 362.28 181.81 362.28C181.352 362.28 180.988 362.378 180.718 362.574C180.447 362.77 180.312 363.027 180.312 363.344C180.312 363.596 180.391 363.806 180.55 363.974C180.718 364.133 180.923 364.263 181.166 364.366C181.418 364.459 181.763 364.567 182.202 364.688C182.752 364.837 183.2 364.987 183.546 365.136C183.891 365.276 184.185 365.491 184.428 365.78C184.68 366.069 184.81 366.447 184.82 366.914C184.82 367.334 184.703 367.712 184.47 368.048C184.236 368.384 183.905 368.65 183.476 368.846C183.056 369.033 182.57 369.126 182.02 369.126ZM193.422 361.328V369H192.148V367.866C191.905 368.258 191.565 368.566 191.126 368.79C190.697 369.005 190.221 369.112 189.698 369.112C189.101 369.112 188.564 368.991 188.088 368.748C187.612 368.496 187.234 368.123 186.954 367.628C186.683 367.133 186.548 366.531 186.548 365.822V361.328H187.808V365.654C187.808 366.41 187.999 366.993 188.382 367.404C188.765 367.805 189.287 368.006 189.95 368.006C190.631 368.006 191.168 367.796 191.56 367.376C191.952 366.956 192.148 366.345 192.148 365.542V361.328H193.422ZM196.847 362.742C197.099 362.303 197.472 361.939 197.967 361.65C198.471 361.351 199.054 361.202 199.717 361.202C200.398 361.202 201.014 361.365 201.565 361.692C202.125 362.019 202.564 362.481 202.881 363.078C203.198 363.666 203.357 364.352 203.357 365.136C203.357 365.911 203.198 366.601 202.881 367.208C202.564 367.815 202.125 368.286 201.565 368.622C201.014 368.958 200.398 369.126 199.717 369.126C199.064 369.126 198.485 368.981 197.981 368.692C197.486 368.393 197.108 368.025 196.847 367.586V372.64H195.573V361.328H196.847V362.742ZM202.055 365.136C202.055 364.557 201.938 364.053 201.705 363.624C201.472 363.195 201.154 362.868 200.753 362.644C200.361 362.42 199.927 362.308 199.451 362.308C198.984 362.308 198.55 362.425 198.149 362.658C197.757 362.882 197.44 363.213 197.197 363.652C196.964 364.081 196.847 364.581 196.847 365.15C196.847 365.729 196.964 366.237 197.197 366.676C197.44 367.105 197.757 367.437 198.149 367.67C198.55 367.894 198.984 368.006 199.451 368.006C199.927 368.006 200.361 367.894 200.753 367.67C201.154 367.437 201.472 367.105 201.705 366.676C201.938 366.237 202.055 365.724 202.055 365.136ZM206.308 362.742C206.56 362.303 206.933 361.939 207.428 361.65C207.932 361.351 208.515 361.202 209.178 361.202C209.859 361.202 210.475 361.365 211.026 361.692C211.586 362.019 212.025 362.481 212.342 363.078C212.659 363.666 212.818 364.352 212.818 365.136C212.818 365.911 212.659 366.601 212.342 367.208C212.025 367.815 211.586 368.286 211.026 368.622C210.475 368.958 209.859 369.126 209.178 369.126C208.525 369.126 207.946 368.981 207.442 368.692C206.947 368.393 206.569 368.025 206.308 367.586V372.64H205.034V361.328H206.308V362.742ZM211.516 365.136C211.516 364.557 211.399 364.053 211.166 363.624C210.933 363.195 210.615 362.868 210.214 362.644C209.822 362.42 209.388 362.308 208.912 362.308C208.445 362.308 208.011 362.425 207.61 362.658C207.218 362.882 206.901 363.213 206.658 363.652C206.425 364.081 206.308 364.581 206.308 365.15C206.308 365.729 206.425 366.237 206.658 366.676C206.901 367.105 207.218 367.437 207.61 367.67C208.011 367.894 208.445 368.006 208.912 368.006C209.388 368.006 209.822 367.894 210.214 367.67C210.615 367.437 210.933 367.105 211.166 366.676C211.399 366.237 211.516 365.724 211.516 365.136ZM215.769 358.64V369H214.495V358.64H215.769ZM224.548 361.328L219.928 372.612H218.612L220.124 368.916L217.03 361.328H218.444L220.852 367.544L223.232 361.328H224.548Z" fill="white"/>
<defs>
<filter id="filter0_d" x="269" y="3" width="498" height="498" filterUnits="userSpaceOnUse" color-interpolation-filters="sRGB">
<feFlood flood-opacity="0" result="BackgroundImageFix"/>
<feColorMatrix in="SourceAlpha" type="matrix" values="0 0 0 0 0 0 0 0 0 0 0 0 0 0 0 0 0 0 127 0"/>
<feOffset/>
<feGaussianBlur stdDeviation="27.5"/>
<feColorMatrix type="matrix" values="0 0 0 0 0.341177 0 0 0 0 1 0 0 0 0 0.745098 0 0 0 0.2 0"/>
<feBlend mode="normal" in2="BackgroundImageFix" result="effect1_dropShadow"/>
<feBlend mode="normal" in="SourceGraphic" in2="effect1_dropShadow" result="shape"/>
</filter>
<filter id="filter1_d" x="135" y="0" width="209" height="209" filterUnits="userSpaceOnUse" color-interpolation-filters="sRGB">
<feFlood flood-opacity="0" result="BackgroundImageFix"/>
<feColorMatrix in="SourceAlpha" type="matrix" values="0 0 0 0 0 0 0 0 0 0 0 0 0 0 0 0 0 0 127 0"/>
<feOffset dy="4"/>
<feGaussianBlur stdDeviation="14"/>
<feColorMatrix type="matrix" values="0 0 0 0 0.92549 0 0 0 0 0.423529 0 0 0 0 0.419608 0 0 0 0.2 0"/>
<feBlend mode="normal" in2="BackgroundImageFix" result="effect1_dropShadow"/>
<feBlend mode="normal" in="SourceGraphic" in2="effect1_dropShadow" result="shape"/>
</filter>
<filter id="filter2_d" x="0.000244141" y="169.019" width="340" height="340" filterUnits="userSpaceOnUse" color-interpolation-filters="sRGB">
<feFlood flood-opacity="0" result="BackgroundImageFix"/>
<feColorMatrix in="SourceAlpha" type="matrix" values="0 0 0 0 0 0 0 0 0 0 0 0 0 0 0 0 0 0 127 0"/>
<feOffset/>
<feGaussianBlur stdDeviation="23"/>
<feColorMatrix type="matrix" values="0 0 0 0 0.490196 0 0 0 0 0.254902 0 0 0 0 0.992157 0 0 0 0.2 0"/>
<feBlend mode="normal" in2="BackgroundImageFix" result="effect1_dropShadow"/>
<feBlend mode="normal" in="SourceGraphic" in2="effect1_dropShadow" result="shape"/>
</filter>
</defs>
</svg>
