<svg width="24" height="24" viewBox="0 0 24 24" fill="none" xmlns="http://www.w3.org/2000/svg">
<path fill-rule="evenodd" clip-rule="evenodd" d="M4.31546 3.75C3.93691 1.8 5.4511 0 7.41956 0C9.16088 0 10.5994 1.425 10.5994 3.15V7.05C11.0536 7.05 11.5079 6.975 11.9621 6.975C12.4164 6.975 12.795 6.975 13.2492 7.05V3.15C13.2492 1.425 14.6877 0 16.429 0C18.3975 0 19.9117 1.8 19.6088 3.75L18.776 8.325C21.7287 9.6 24 11.85 24 14.625V16.35C24 18.675 22.4858 20.625 20.2902 21.9C18.0946 23.25 15.2177 24 11.9621 24C8.70662 24 5.82965 23.25 3.63407 21.9C1.5142 20.625 0 18.675 0 16.35V14.625C0 11.85 2.19558 9.6 5.14826 8.325L4.31546 3.75ZM17.6404 8.925L18.6246 3.525C18.8517 2.175 17.8675 0.9 16.429 0.9C15.2177 0.9 14.2334 1.875 14.2334 3.075V8.025C13.9306 7.95 13.5521 7.95 13.2492 7.95C12.795 7.95 12.4164 7.875 11.9621 7.875C11.5079 7.875 11.0536 7.875 10.5994 7.95C10.2965 7.95 9.91798 8.025 9.61514 8.025V3.15C9.61514 1.95 8.63091 0.975 7.41956 0.975C6.05678 0.975 4.99685 2.25 5.29968 3.6L6.28391 9C3.1041 10.2 0.984227 12.3 0.984227 14.7V16.425C0.984227 20.1 5.90536 23.1 11.9621 23.1C18.0189 23.1 22.9401 20.1 22.9401 16.425V14.7C23.0158 12.225 20.8959 10.125 17.6404 8.925Z" fill="#633001"/>
<path d="M23.0154 16.35C23.0154 20.025 18.0943 23.025 12.0375 23.025C5.98071 23.025 1.05957 20.025 1.05957 16.35V14.625H23.0911V16.35H23.0154Z" fill="#FEDC90"/>
<path fill-rule="evenodd" clip-rule="evenodd" d="M5.29932 3.6001C4.99648 2.2501 6.05642 0.975098 7.41919 0.975098C8.63055 0.975098 9.61478 1.9501 9.61478 3.1501V8.1001C10.3719 8.0251 11.129 7.9501 11.9618 7.9501C12.7189 7.9501 13.476 8.0251 14.2331 8.1001V3.1501C14.2331 1.9501 15.2173 0.975098 16.4287 0.975098C17.7914 0.975098 18.8514 2.2501 18.6242 3.6001L17.64 9.0001C20.8198 10.2001 23.0154 12.3001 23.0154 14.7001C23.0154 18.3751 18.0943 21.3751 12.0375 21.3751C5.98071 21.3751 1.05957 18.3751 1.05957 14.7001C1.05957 12.3001 3.17944 10.2001 6.35925 9.0001L5.29932 3.6001Z" fill="#D1884F"/>
<path d="M8.93345 14.175C8.93345 15.15 8.40349 15.975 7.7221 15.975C7.04071 15.975 6.51074 15.15 6.51074 14.175C6.51074 13.2 7.04071 12.375 7.7221 12.375C8.40349 12.375 8.93345 13.2 8.93345 14.175Z" fill="#633001"/>
<path d="M17.3378 14.175C17.3378 15.15 16.8078 15.975 16.1264 15.975C15.445 15.975 14.915 15.15 14.915 14.175C14.915 13.2 15.445 12.375 16.1264 12.375C16.8078 12.375 17.3378 13.2 17.3378 14.175Z" fill="#633001"/>
</svg>
