<svg width="80" height="80" viewBox="0 0 80 80" fill="none" xmlns="http://www.w3.org/2000/svg">
<rect opacity="0.1" width="80" height="80" rx="20" fill="#FF57DA"/>
<path d="M58 22H22C21.4696 22 20.9609 22.2107 20.5858 22.5858C20.2107 22.9609 20 23.4696 20 24C20 24.5304 20.2107 25.0391 20.5858 25.4142C20.9609 25.7893 21.4696 26 22 26V48C22 49.0609 22.4214 50.0783 23.1716 50.8284C23.9217 51.5786 24.9391 52 26 52H54C55.0609 52 56.0783 51.5786 56.8284 50.8284C57.5786 50.0783 58 49.0609 58 48V26C58.5304 26 59.0391 25.7893 59.4142 25.4142C59.7893 25.0391 60 24.5304 60 24C60 23.4696 59.7893 22.9609 59.4142 22.5858C59.0391 22.2107 58.5304 22 58 22ZM47.42 35.42L39.42 43.42C39.2341 43.6075 39.0129 43.7562 38.7692 43.8578C38.5254 43.9593 38.264 44.0116 38 44.0116C37.736 44.0116 37.4746 43.9593 37.2308 43.8578C36.9871 43.7562 36.7659 43.6075 36.58 43.42L32.58 39.42C32.2034 39.0434 31.9918 38.5326 31.9918 38C31.9918 37.4674 32.2034 36.9566 32.58 36.58C32.9566 36.2034 33.4674 35.9918 34 35.9918C34.5326 35.9918 35.0434 36.2034 35.42 36.58L38 39.18L44.58 32.58C44.9566 32.2034 45.4674 31.9918 46 31.9918C46.5326 31.9918 47.0434 32.2034 47.42 32.58C47.7966 32.9566 48.0082 33.4674 48.0082 34C48.0082 34.5326 47.7966 35.0434 47.42 35.42ZM36.16 54L33.56 57.24C33.3737 57.4757 33.1368 57.6664 32.8667 57.798C32.5966 57.9296 32.3004 57.9986 32 58C31.5489 57.9974 31.1119 57.8423 30.76 57.56C30.3479 57.23 30.083 56.7505 30.0231 56.2259C29.9631 55.7014 30.113 55.1745 30.44 54.76L31.04 54H36.16ZM49.24 57.56C48.8881 57.8423 48.4511 57.9974 48 58C47.6996 57.9986 47.4034 57.9296 47.1333 57.798C46.8632 57.6664 46.6263 57.4757 46.44 57.24L43.84 54H48.96L49.56 54.76C49.887 55.1745 50.0369 55.7014 49.9769 56.2259C49.917 56.7505 49.6521 57.23 49.24 57.56Z" fill="#FF57DA"/>
</svg>
