<svg width="60" height="60" viewBox="0 0 60 60" fill="none" xmlns="http://www.w3.org/2000/svg">
<path d="M60 15C60 6.71573 53.2843 0 45 0H15C6.71573 0 0 6.71573 0 15V45C0 53.2843 6.71573 60 15 60H45C53.2843 60 60 53.2843 60 45V15Z" fill="#FF4500"/>
<path d="M32.611 33.906C32.7102 34.004 32.7102 34.1638 32.611 34.263C32.0685 34.802 31.218 35.0645 30.0082 35.0645L29.9988 35.0622L29.9895 35.0645C28.7808 35.0645 27.9292 34.802 27.3867 34.2618C27.2875 34.1638 27.2875 34.004 27.3867 33.906C27.4847 33.808 27.6457 33.808 27.7448 33.906C28.187 34.3458 28.9208 34.5605 29.9895 34.5605L29.9988 34.5628L30.0082 34.5605C31.0757 34.5605 31.8095 34.3458 32.2528 33.906C32.352 33.808 32.513 33.808 32.611 33.906ZM28.5977 31.085C28.5977 30.4935 28.1147 30.0128 27.522 30.0128C26.9282 30.0128 26.4452 30.4935 26.4452 31.085C26.4452 31.6753 26.9282 32.156 27.522 32.156C28.1147 32.1572 28.5977 31.6765 28.5977 31.085ZM44 30C44 37.7315 37.7315 44 30 44C22.2685 44 16 37.7315 16 30C16 22.2685 22.2685 16 30 16C37.7315 16 44 22.2685 44 30ZM38.1667 29.8495C38.1667 28.8567 37.3558 28.0493 36.3583 28.0493C35.8718 28.0493 35.4308 28.2442 35.1053 28.5568C33.8733 27.746 32.2062 27.2303 30.3617 27.1638L31.3708 23.9858L34.1043 24.6263L34.1008 24.666C34.1008 25.478 34.7647 26.1383 35.5802 26.1383C36.3957 26.1383 37.0583 25.478 37.0583 24.666C37.0583 23.854 36.3957 23.1937 35.5802 23.1937C34.9537 23.1937 34.4205 23.5845 34.2047 24.1317L31.2588 23.441C31.1305 23.4095 30.9987 23.4842 30.959 23.6102L29.8332 27.1545C27.9012 27.1778 26.1523 27.6982 24.8655 28.5323C24.5423 28.2348 24.1142 28.0482 23.6405 28.0482C22.6442 28.0493 21.8333 28.8567 21.8333 29.8495C21.8333 30.5098 22.1962 31.0815 22.7293 31.3953C22.6943 31.5867 22.671 31.7815 22.671 31.9787C22.671 34.6398 25.9435 36.8052 29.9662 36.8052C33.9888 36.8052 37.2613 34.6398 37.2613 31.9787C37.2613 31.792 37.2415 31.6088 37.21 31.428C37.777 31.1235 38.1667 30.5343 38.1667 29.8495ZM32.4827 30.014C31.8888 30.014 31.407 30.4947 31.407 31.0862C31.407 31.6765 31.89 32.1572 32.4827 32.1572C33.0753 32.1572 33.5583 31.6765 33.5583 31.0862C33.5583 30.4947 33.0765 30.014 32.4827 30.014Z" fill="white"/>
</svg>
