<svg width="80" height="80" viewBox="0 0 80 80" fill="none" xmlns="http://www.w3.org/2000/svg">
<path opacity="0.1" d="M0 20C0 8.95431 8.95431 0 20 0H60C71.0457 0 80 8.95431 80 20V60C80 71.0457 71.0457 80 60 80H20C8.95431 80 0 71.0457 0 60V20Z" fill="#7D41FD"/>
<path d="M48 42.6667C47.2407 42.671 46.491 42.8373 45.8012 43.1546C45.1114 43.472 44.4973 43.9329 44 44.5067L37.2133 41.12C37.3719 40.3818 37.3719 39.6183 37.2133 38.88L44 35.4933C44.8266 36.4306 45.9561 37.0478 47.1914 37.2372C48.4267 37.4267 49.6892 37.1763 50.7588 36.5298C51.8283 35.8834 52.6368 34.8818 53.0432 33.7001C53.4497 32.5183 53.4282 31.2313 52.9826 30.0637C52.5369 28.8962 51.6954 27.9222 50.605 27.3117C49.5145 26.7013 48.2442 26.4932 47.016 26.7237C45.7877 26.9543 44.6794 27.6088 43.8845 28.5732C43.0896 29.5375 42.6585 30.7503 42.6666 32C42.6655 32.3766 42.7058 32.7522 42.7866 33.12L36 36.5067C35.2878 35.6852 34.3417 35.1009 33.2882 34.8322C32.2347 34.5634 31.1243 34.6231 30.1057 35.0031C29.087 35.3831 28.2089 36.0654 27.5889 36.9585C26.9689 37.8516 26.6366 38.9128 26.6366 40C26.6366 41.0872 26.9689 42.1484 27.5889 43.0415C28.2089 43.9346 29.087 44.6169 30.1057 44.9969C31.1243 45.3769 32.2347 45.4366 33.2882 45.1679C34.3417 44.8991 35.2878 44.3149 36 43.4933L42.7866 46.88C42.7058 47.2478 42.6655 47.6234 42.6666 48C42.6666 49.0548 42.9794 50.086 43.5654 50.963C44.1515 51.8401 44.9844 52.5237 45.959 52.9274C46.9335 53.331 48.0059 53.4367 49.0404 53.2309C50.075 53.0251 51.0253 52.5171 51.7712 51.7712C52.5171 51.0254 53.025 50.0751 53.2308 49.0405C53.4366 48.0059 53.331 46.9336 52.9273 45.959C52.5236 44.9845 51.8401 44.1515 50.963 43.5655C50.0859 42.9795 49.0548 42.6667 48 42.6667Z" fill="#7D41FD"/>
</svg>
