<svg width="49" height="49" viewBox="0 0 49 49" fill="none" xmlns="http://www.w3.org/2000/svg">
<rect opacity="0.1" width="49" height="49" rx="15" fill="#57FFBE"/>
<path fill-rule="evenodd" clip-rule="evenodd" d="M35 24C35 30.0751 30.0751 35 24 35C17.9249 35 13 30.0751 13 24C13 17.9249 17.9249 13 24 13C30.0751 13 35 17.9249 35 24ZM22 19C20.3431 19 19 20.3431 19 22V26C19 27.6569 20.3431 29 22 29H26C27.6569 29 29 27.6569 29 26V22C29 20.3431 27.6569 19 26 19H22ZM21 22C21 21.4477 21.4477 21 22 21H26C26.5523 21 27 21.4477 27 22V26C27 26.5523 26.5523 27 26 27H22C21.4477 27 21 26.5523 21 26V22Z" fill="#57FFBE"/>
</svg>
