<svg width="80" height="80" viewBox="0 0 80 80" fill="none" xmlns="http://www.w3.org/2000/svg">
<rect opacity="0.1" width="80" height="80" rx="20" fill="#57FFBE"/>
<path d="M50.6666 48C51.1221 48.0029 51.5741 47.9215 52 47.76V50.6667C52 51.3739 51.719 52.0522 51.2189 52.5523C50.7188 53.0524 50.0406 53.3333 49.3333 53.3333H30.6666C29.6058 53.3333 28.5884 52.9119 27.8382 52.1618C27.0881 51.4116 26.6666 50.3942 26.6666 49.3333V30.6667C26.646 30.4449 26.646 30.2218 26.6666 30C26.8523 29.0439 27.3707 28.1845 28.1298 27.5743C28.8889 26.9641 29.8397 26.6425 30.8133 26.6667H45.3333C46.0406 26.6667 46.7188 26.9476 47.2189 27.4477C47.719 27.9478 48 28.6261 48 29.3333V30.6667H45.3333V29.3333H30.8133C30.4784 29.3168 30.148 29.4167 29.8783 29.616C29.6085 29.8152 29.416 30.1017 29.3333 30.4267C29.3255 30.5065 29.3255 30.5869 29.3333 30.6667C29.3333 30.9845 29.4468 31.2918 29.6533 31.5333C29.7785 31.6797 29.9339 31.7972 30.1088 31.8778C30.2838 31.9583 30.4741 32 30.6666 32H49.3333C50.0406 32 50.7188 32.281 51.2189 32.7811C51.719 33.2812 52 33.9594 52 34.6667V37.5733C51.5741 37.4118 51.1221 37.3304 50.6666 37.3333H46.6666C45.6058 37.3333 44.5884 37.7548 43.8382 38.5049C43.0881 39.2551 42.6666 40.2725 42.6666 41.3333V44C42.6666 45.0609 43.0881 46.0783 43.8382 46.8284C44.5884 47.5786 45.6058 48 46.6666 48H50.6666ZM52 39.0267C51.5949 38.7917 51.135 38.6675 50.6666 38.6667H46.6666C45.9594 38.6667 45.2811 38.9476 44.781 39.4477C44.2809 39.9478 44 40.6261 44 41.3333V44C44 44.7073 44.2809 45.3855 44.781 45.8856C45.2811 46.3857 45.9594 46.6667 46.6666 46.6667H50.6666C51.3739 46.6667 52.0522 46.3857 52.5523 45.8856C53.0524 45.3855 53.3333 44.7073 53.3333 44V41.3333C53.3328 40.8657 53.2094 40.4064 52.9754 40.0016C52.7413 39.5967 52.405 39.2605 52 39.0267Z" fill="#57FFBE"/>
</svg>
